<?xml version="1.0" encoding="utf-8"?>
<!-- Svg Vector Icons : http://www.onlinewebfonts.com/icon -->
<!DOCTYPE svg PUBLIC "-//W3C//DTD SVG 1.1//EN" "http://www.w3.org/Graphics/SVG/1.1/DTD/svg11.dtd">
<svg version="1.1" xmlns="http://www.w3.org/2000/svg" xmlns:xlink="http://www.w3.org/1999/xlink" x="0px" y="0px" viewBox="0 0 1000 1000" enable-background="new 0 0 1000 1000" xml:space="preserve">
<metadata> Svg Vector Icons : http://www.onlinewebfonts.com/icon </metadata>
<g><g transform="translate(0.000000,511.000000) scale(0.100000,-0.100000)"><path d="M289.4,5012.4c-35.6-22.3-93.6-71.3-129.2-106.9l-60.2-64.6l4.5-4645.2l6.7-4643l49-89.1c55.7-104.7,142.6-189.4,251.7-247.3c75.7-40.1,236.2-42.3,4596.2-49c4480.3-4.5,4518.2-4.5,4605.1,40.1c118.1,60.2,240.6,191.6,269.6,287.4c15.6,53.5,20.1,668.4,15.6,1851.4c-6.7,1677.6-8.9,1775.6-49,1849.2c-106.9,200.5-265.1,298.6-481.2,298.6s-374.3-98-481.2-298.6c-40.1-73.5-42.3-160.4-49-1474.9l-6.7-1399.1H5046H1258.5V108.7v3785.2l1399.1,6.7c1314.5,6.7,1401.4,8.9,1474.9,49c200.5,106.9,298.5,265.1,298.5,481.2s-98,374.3-298.5,481.2c-73.5,40.1-167.1,42.3-1753.4,49c-1653.1,4.5-1677.6,6.7-1677.6,49c0,40.1-15.6,44.6-171.6,44.6C398.5,5054.7,340.6,5043.5,289.4,5012.4z"/><path d="M6026.2,4945.5c-245.1-75.7-387.7-265.1-387.7-514.6c0-211.7,95.8-372.1,287.4-474.5c86.9-46.8,118.1-49,1109.5-60.2l1018.2-11.1L5422.5,1256.1C3822.8-343.5,2773.5-1408.5,2746.8-1462c-66.8-122.5-66.8-345.3-2.2-467.9c55.7-104.7,164.9-213.9,274-269.6c111.4-57.9,340.9-53.5,456.7,8.9c53.5,26.7,1118.4,1076.1,2718,2675.7l2628.9,2631.2l11.1-1018.2c11.1-940.2,13.4-1027.1,53.5-1098.4c106.9-200.5,265.1-298.5,481.2-298.5s374.3,98,481.2,298.5c40.1,73.5,42.3,169.3,49,1782.3c4.5,1301.1,0,1728.9-22.3,1804.6c-35.6,131.4-213.9,314.1-343.1,352c-69.1,20.1-512.4,26.7-1771.2,24.5C6837.2,4963.3,6057.5,4954.4,6026.2,4945.5z"/></g></g>
</svg>