<?xml version="1.0" encoding="UTF-8"?>
<!DOCTYPE svg PUBLIC "-//W3C//DTD SVG 1.1//EN" "http://www.w3.org/Graphics/SVG/1.1/DTD/svg11.dtd">
<svg xmlns="http://www.w3.org/2000/svg" version="1.1" width="990px" height="990px" style="shape-rendering:geometricPrecision; text-rendering:geometricPrecision; image-rendering:optimizeQuality; fill-rule:evenodd; clip-rule:evenodd" xmlns:xlink="http://www.w3.org/1999/xlink">
<g><path style="opacity:1" fill="#000000" d="M -0.5,-0.5 C 329.5,-0.5 659.5,-0.5 989.5,-0.5C 989.5,329.5 989.5,659.5 989.5,989.5C 659.5,989.5 329.5,989.5 -0.5,989.5C -0.5,659.5 -0.5,329.5 -0.5,-0.5 Z"/></g>
<g><path style="opacity:1" fill="#fbfbfb" d="M 341.5,166.5 C 400.267,163.468 446.1,186.134 479,234.5C 489.429,250.693 498.263,267.693 505.5,285.5C 545.707,249.209 591.04,220.709 641.5,200C 687.479,181.514 734.479,178.181 782.5,190C 801.335,194.936 818.668,202.936 834.5,214C 825.79,222.696 815.457,228.863 803.5,232.5C 727.667,190.779 653,192.945 579.5,239C 553.467,256.05 530.133,276.384 509.5,300C 522.659,340.437 528.159,381.937 526,424.5C 525.576,434.892 524.91,445.226 524,455.5C 551.207,431.958 578.707,408.791 606.5,386C 614.281,380.776 622.614,376.61 631.5,373.5C 632.167,373.833 632.833,374.167 633.5,374.5C 596.506,406.658 559.339,438.658 522,470.5C 512.766,523.535 495.933,574.035 471.5,622C 482.189,629.51 493.856,635.177 506.5,639C 542.197,649.142 578.531,652.476 615.5,649C 651.509,645.932 686.842,639.265 721.5,629C 774.967,612.624 827.3,593.29 878.5,571C 913.055,555.556 947.721,540.389 982.5,525.5C 983.167,525.833 983.833,526.167 984.5,526.5C 977.435,534.052 969.101,539.886 959.5,544C 890.968,575.733 821.301,604.733 750.5,631C 706.294,647.051 660.961,658.718 614.5,666C 574.026,672.615 533.693,671.949 493.5,664C 480.457,660.761 467.79,656.761 455.5,652C 412.662,726.85 362.828,796.683 306,861.5C 287.43,881.332 267.263,899.165 245.5,915C 234.956,921.542 223.956,927.209 212.5,932C 197.275,937.806 187.775,932.973 184,917.5C 182.744,892.848 187.077,869.181 197,846.5C 210.077,815.673 225.744,786.34 244,758.5C 286.505,695.934 334.505,637.6 388,583.5C 386.037,574.97 384.037,566.303 382,557.5C 377.28,524.144 380.28,491.478 391,459.5C 409.548,405.869 437.715,358.202 475.5,316.5C 462.826,271.685 437.826,235.518 400.5,208C 364.951,186.637 326.951,180.971 286.5,191C 241.645,202.088 202.312,223.088 168.5,254C 111.942,304.25 71.7756,365.416 48,437.5C 37.7782,472.344 35.7782,507.677 42,543.5C 54.6712,594.841 86.8379,625.674 138.5,636C 179.569,640.387 219.402,635.221 258,620.5C 258.833,620.667 259.667,620.833 260.5,621C 252.413,629.556 242.747,635.89 231.5,640C 184.919,657.743 137.252,661.743 88.5,652C 71.8013,646.824 57.1347,638.324 44.5,626.5C 21.0098,602.186 7.84316,573.186 5,539.5C 3.14674,493.626 12.1467,449.959 32,408.5C 82.5153,306.317 160.015,232.484 264.5,187C 289.341,176.544 315.008,169.711 341.5,166.5 Z"/></g>
<g><path style="opacity:1" fill="#010101" d="M 486.5,360.5 C 486.42,363.781 487.087,366.781 488.5,369.5C 493.948,408.854 493.782,448.187 488,487.5C 464.396,508.435 441.396,530.101 419,552.5C 416.385,543.366 414.719,534.033 414,524.5C 412.054,492.507 416.721,461.507 428,431.5C 441.276,396.602 458.943,364.269 481,334.5C 483.156,343.112 484.989,351.778 486.5,360.5 Z"/></g>
<g><path style="opacity:1" fill="#656565" d="M 486.5,360.5 C 487.913,363.219 488.58,366.219 488.5,369.5C 487.087,366.781 486.42,363.781 486.5,360.5 Z"/></g>
<g><path style="opacity:1" fill="#010101" d="M 484.5,504.5 C 478.292,540.307 467.459,574.974 452,608.5C 439.319,596.482 429.819,582.316 423.5,566C 443.355,544.979 463.688,524.479 484.5,504.5 Z"/></g>
<g><path style="opacity:1" fill="#000000" d="M 393.5,596.5 C 394.496,596.414 395.329,596.748 396,597.5C 405.832,615.5 419.332,630.167 436.5,641.5C 391.89,726.581 337.723,804.914 274,876.5C 261.735,889.77 248.568,901.937 234.5,913C 227.874,914.769 223.04,912.603 220,906.5C 215.676,893.624 215.342,880.624 219,867.5C 226.087,837.989 237.087,809.989 252,783.5C 281.731,732.772 315.731,685.106 354,640.5C 366.94,625.613 380.107,610.946 393.5,596.5 Z"/></g>
</svg>
