<?xml version="1.0" encoding="UTF-8"?>
<!DOCTYPE svg PUBLIC "-//W3C//DTD SVG 1.1//EN" "http://www.w3.org/Graphics/SVG/1.1/DTD/svg11.dtd">
<svg xmlns="http://www.w3.org/2000/svg" version="1.1" width="990px" height="990px" style="shape-rendering:geometricPrecision; text-rendering:geometricPrecision; image-rendering:optimizeQuality; fill-rule:evenodd; clip-rule:evenodd" xmlns:xlink="http://www.w3.org/1999/xlink">
<g><path style="opacity:1" fill="#fefefe" d="M -0.5,-0.5 C 329.5,-0.5 659.5,-0.5 989.5,-0.5C 989.5,329.5 989.5,659.5 989.5,989.5C 659.5,989.5 329.5,989.5 -0.5,989.5C -0.5,659.5 -0.5,329.5 -0.5,-0.5 Z"/></g>
<g><path style="opacity:1" fill="#030303" d="M 185.5,922.5 C 185.435,919.572 184.768,916.905 183.5,914.5C 183.048,893.833 186.548,873.833 194,854.5C 204.283,827.6 216.95,801.934 232,777.5C 277.168,707.631 329.168,642.964 388,583.5C 385.287,571.996 382.954,560.329 381,548.5C 378.029,504.721 386.029,463.054 405,423.5C 423.365,384.737 446.698,349.404 475,317.5C 465.124,279.276 445.624,246.776 416.5,220C 378.134,189.056 334.801,179.389 286.5,191C 241.645,202.088 202.312,223.088 168.5,254C 110.814,304.846 70.3142,367.013 47,440.5C 40.1781,464.723 37.1781,489.39 38,514.5C 39.444,555.913 55.944,589.746 87.5,616C 110.852,632.175 136.852,639.342 165.5,637.5C 187.88,637.619 209.88,634.786 231.5,629C 240.708,625.652 250.041,622.819 259.5,620.5C 259.649,621.552 259.483,622.552 259,623.5C 244.532,634.649 228.366,642.483 210.5,647C 172.999,657.848 134.999,660.181 96.5,654C 59.0025,644.506 32.5025,622.006 17,586.5C 2.64379,547.904 0.643791,508.571 11,468.5C 23.7342,420.703 44.7342,377.036 74,337.5C 132.774,258.848 208.941,204.348 302.5,174C 382.686,152.55 444.186,177.05 487,247.5C 493.905,259.978 500.239,272.644 506,285.5C 551.466,243.831 603.633,212.997 662.5,193C 715.975,176.679 767.975,180.346 818.5,204C 823.862,207.345 829.196,210.678 834.5,214C 825.731,222.721 815.397,228.887 803.5,232.5C 729.089,191.334 655.422,192.834 582.5,237C 555.287,254.473 530.954,275.473 509.5,300C 525.482,350.753 530.315,402.586 524,455.5C 551.207,431.958 578.707,408.791 606.5,386C 614.281,380.776 622.614,376.61 631.5,373.5C 632.167,373.833 632.833,374.167 633.5,374.5C 631.684,376.817 629.684,378.984 627.5,381C 591.746,410.083 556.579,439.916 522,470.5C 512.763,523.545 495.929,574.045 471.5,622C 472.272,623.221 473.272,624.221 474.5,625C 500.772,638.788 528.772,646.788 558.5,649C 611.529,652.187 663.529,646.187 714.5,631C 768.024,615.16 820.357,596.16 871.5,574C 908.505,557.83 945.505,541.664 982.5,525.5C 983.167,525.833 983.833,526.167 984.5,526.5C 977.435,534.052 969.101,539.886 959.5,544C 913.83,564.778 867.83,584.778 821.5,604C 769.866,625.656 716.866,643.322 662.5,657C 627.148,665.336 591.315,669.836 555,670.5C 520.824,670.877 487.991,664.544 456.5,651.5C 413.152,726.354 362.985,796.354 306,861.5C 287.43,881.332 267.263,899.165 245.5,915C 233.816,922.355 221.482,928.355 208.5,933C 197.383,936.435 189.716,932.935 185.5,922.5 Z"/></g>
<g><path style="opacity:1" fill="#fdfdfd" d="M 486.5,360.5 C 486.42,363.781 487.087,366.781 488.5,369.5C 489.092,372.127 489.425,374.794 489.5,377.5C 489.523,383.712 490.19,389.712 491.5,395.5C 493.643,426.31 492.476,456.977 488,487.5C 464.396,508.435 441.396,530.101 419,552.5C 416.361,545.407 414.695,538.074 414,530.5C 411.178,491.611 417.511,454.278 433,418.5C 445.736,388.48 461.736,360.48 481,334.5C 483.798,342.95 485.631,351.616 486.5,360.5 Z"/></g>
<g><path style="opacity:1" fill="#969696" d="M 486.5,360.5 C 487.913,363.219 488.58,366.219 488.5,369.5C 487.087,366.781 486.42,363.781 486.5,360.5 Z"/></g>
<g><path style="opacity:1" fill="#9b9b9b" d="M 489.5,377.5 C 490.946,383.274 491.612,389.274 491.5,395.5C 490.19,389.712 489.523,383.712 489.5,377.5 Z"/></g>
<g><path style="opacity:1" fill="#fdfdfd" d="M 484.5,504.5 C 478.669,540.422 467.836,575.089 452,608.5C 438.469,596.343 429.136,581.676 424,564.5C 444.062,544.271 464.228,524.271 484.5,504.5 Z"/></g>
<g><path style="opacity:1" fill="#fefefe" d="M 393.5,596.5 C 394.496,596.414 395.329,596.748 396,597.5C 405.518,615.353 418.852,629.686 436,640.5C 433.945,646.623 431.279,652.623 428,658.5C 384.777,736.378 333.777,808.711 275,875.5C 262.029,889.812 247.862,902.645 232.5,914C 227.775,914.222 223.942,912.389 221,908.5C 216.817,899.974 215.484,890.974 217,881.5C 219.385,862.908 224.052,844.908 231,827.5C 252.691,779.084 279.691,734.084 312,692.5C 337.876,659.453 365.043,627.453 393.5,596.5 Z"/></g>
<g><path style="opacity:1" fill="#929292" d="M 183.5,914.5 C 184.768,916.905 185.435,919.572 185.5,922.5C 183.96,920.162 183.294,917.495 183.5,914.5 Z"/></g>
</svg>
